<svg xmlns="http://www.w3.org/2000/svg" xmlns:xlink="http://www.w3.org/1999/xlink" version="1.1" x="0px" y="0px" viewBox="0 0 100 100" enable-background="new 0 0 100 100" xml:space="preserve"><g><path d="M33.4,43.8c0,1.8,2.6,3.3,5.9,3.3c3.2,0,5.9-1.5,5.9-3.3c0-0.1,0-0.2,0-0.4V28.2c0-0.1,0-0.2,0-0.3c0-1.4-2.6-2.5-5.9-2.5   c-3.2,0-5.9,1.1-5.9,2.5c0,0.1,0,0.1,0,0.2v15.4C33.4,43.6,33.4,43.7,33.4,43.8z M39.3,26.3c2.5,0,4.5,0.7,4.5,1.6s-2,1.6-4.5,1.6   c-2.5,0-4.5-0.7-4.5-1.6S36.8,26.3,39.3,26.3z"></path><path d="M77.2,33.9c0,0.1,0,0.2,0,0.2c0,1.8,2.6,3.3,5.9,3.3c3.2,0,5.9-1.5,5.9-3.3c0-0.1,0-0.2,0-0.4v-11c0,0,0-0.1,0-0.1h0   c0,0,0,0,0,0c0,0,0-0.1,0-0.1c0-0.1,0-0.1,0-0.2c-0.1-4.7-1.8-9-4.8-12.2C81,6.8,76.7,5,72.1,5c-4.6,0-8.8,1.8-12,5.1   c-3,3.2-4.8,7.5-4.8,12.2c0,0.1,0,0.1,0,0.2c0,0,0,0.1,0,0.1c0,0,0,0,0,0h0c0,0,0,0,0,0.1v30c0,0.1,0,0.2,0,0.2   c0,1.8,2.6,3.3,5.9,3.3c3.2,0,5.9-1.5,5.9-3.3c0-0.1,0-0.2,0-0.4v-30h0c0,0,0,0,0-0.1c0,0,0-0.1,0-0.1c0,0,0,0,0,0   c0.1-3.4,2.2-5.7,5.1-5.7c2.9,0,5,2.3,5.1,5.6h0V33.9z"></path><path d="M89,41.4c0-0.1,0-0.2,0-0.3c0-1.4-2.6-2.5-5.9-2.5c-3.2,0-5.9,1.1-5.9,2.5c0,0.1,0,0.1,0,0.2v50.1c0,0.1,0,0.2,0,0.2   c0,1.8,2.6,3.3,5.9,3.3c3.2,0,5.9-1.5,5.9-3.3c0-0.1,0-0.2,0-0.4V41.4z M83.1,42.8c-2.5,0-4.5-0.7-4.5-1.6c0-0.9,2-1.6,4.5-1.6   c2.5,0,4.5,0.7,4.5,1.6C87.7,42,85.6,42.8,83.1,42.8z"></path><path d="M67.1,61.2L67.1,61.2C67.1,61.2,67.1,61.1,67.1,61.2c0-0.1,0-0.1,0-0.2c0-1.4-2.6-2.5-5.9-2.5c-3.2,0-5.9,1.1-5.9,2.5   c0,0.1,0,0.2,0,0.3c0,0,0,0,0,0c0,0,0,0,0,0c-0.1,3.4-2.2,5.7-5.1,5.7c-2.8,0-4.9-2.1-5.1-5.3c0,0,0-0.1,0-0.1c0-0.1,0-0.2,0-0.3   c0,0,0,0,0,0c0,0,0,0,0-0.1V50.4c0-0.1,0-0.2,0-0.3c0-1.4-2.6-2.5-5.9-2.5c-3,0-5.5,1-5.8,2.3h0v0.1c0,0.1,0,0.1,0,0.2s0,0.1,0,0.2   v10.8c0,0,0,0,0,0.1h0c0,0,0,0,0,0c0,0,0,0.1,0,0.1c0,0.1,0,0.1,0,0.2c0,0,0,0,0,0c0,0,0,0.1,0,0.1c0,0.1,0,0.3,0,0.4   c0.2,4.5,1.9,8.6,4.8,11.7c3.1,3.3,7.4,5.1,12,5.1c4.6,0,8.8-1.8,12-5.1c3-3.2,4.8-7.5,4.8-12.2c0-0.1,0-0.1,0-0.2   C67.1,61.3,67.1,61.2,67.1,61.2C67.1,61.2,67.1,61.2,67.1,61.2z M39.3,51.7c-2.5,0-4.5-0.7-4.5-1.6c0-0.9,2-1.6,4.5-1.6   c2.5,0,4.5,0.7,4.5,1.6C43.9,51,41.8,51.7,39.3,51.7z M61.2,62.6c-2.5,0-4.5-0.7-4.5-1.6c0-0.9,2-1.6,4.5-1.6   c2.5,0,4.5,0.7,4.5,1.6C65.7,61.9,63.7,62.6,61.2,62.6z"></path><path d="M23.3,29.2c0-1.4-2.6-2.5-5.9-2.5c-3.2,0-5.9,1.1-5.9,2.5c0,0.1,0,0.1,0,0.2v32.5c0,0.1,0,0.1,0,0.2s0,0.1,0,0.2v0.2h0   c0.4,1.5,2.8,2.6,5.8,2.6c3,0,5.4-1.1,5.8-2.6h0v-0.1c0-0.1,0-0.2,0-0.3c0-0.1,0-0.2,0-0.3V29.5C23.3,29.4,23.3,29.3,23.3,29.2z    M17.4,30.8c-2.5,0-4.5-0.7-4.5-1.6s2-1.6,4.5-1.6c2.5,0,4.5,0.7,4.5,1.6S19.9,30.8,17.4,30.8z"></path><path d="M38.8,25.1c3.1,0,5.7-1.1,5.8-2.6h0c0,0,0,0,0,0c0,0,0-0.1,0-0.1c0-0.1,0-0.1,0-0.2c-0.1-4.7-1.8-9-4.8-12.2   C36.6,6.8,32.4,5,27.8,5s-8.8,1.8-12,5.1c-3,3.2-4.8,7.5-4.8,12.2c0,0.1,0,0.1,0,0.2c0,0,0,0.1,0,0.1c0,0,0,0,0,0h0   c0.2,1.4,2.7,2.6,5.8,2.6c3.1,0,5.7-1.1,5.8-2.6h0c0,0,0,0,0-0.1c0,0,0-0.1,0-0.1c0,0,0,0,0,0c0.1-3.4,2.2-5.7,5.1-5.7   s5,2.3,5.1,5.7c0,0,0,0,0,0c0,0,0,0.1,0,0.1c0,0,0,0,0,0.1h0C33.1,24,35.7,25.1,38.8,25.1z"></path><path d="M23.3,76c0-1.4-2.6-2.5-5.9-2.5c-3,0-5.5,1-5.8,2.2h0v0.1c0,0.1,0,0.1,0,0.2s0,0.1,0,0.2v15.3c0,0.1,0,0.2,0,0.2   c0,1.8,2.6,3.3,5.9,3.3c3.2,0,5.9-1.5,5.9-3.3c0-0.1,0-0.2,0-0.4v-15C23.3,76.2,23.3,76.1,23.3,76z M17.4,77.6   c-2.5,0-4.5-0.7-4.5-1.6s2-1.6,4.5-1.6c2.5,0,4.5,0.7,4.5,1.6S19.9,77.6,17.4,77.6z"></path></g></svg>